<svg xmlns="http://www.w3.org/2000/svg" viewBox="0 0 32 18" shape-rendering="crispEdges"><rect x="0" y="0" width="32" height="1" fill="#0b0818"/><rect x="0" y="1" width="2" height="1" fill="#0b0818"/><rect x="2" y="1" width="1" height="1" fill="#fef6d8"/><rect x="3" y="1" width="1" height="1" fill="#0b0818"/><rect x="4" y="1" width="3" height="1" fill="#cfd6e6"/><rect x="7" y="1" width="2" height="1" fill="#0b0818"/><rect x="9" y="1" width="1" height="1" fill="#fef6d8"/><rect x="10" y="1" width="5" height="1" fill="#0b0818"/><rect x="15" y="1" width="1" height="1" fill="#1a1428"/><rect x="16" y="1" width="9" height="1" fill="#0b0818"/><rect x="25" y="1" width="1" height="1" fill="#fef6d8"/><rect x="26" y="1" width="6" height="1" fill="#0b0818"/><rect x="0" y="2" width="4" height="1" fill="#0b0818"/><rect x="4" y="2" width="3" height="1" fill="#cfd6e6"/><rect x="7" y="2" width="6" height="1" fill="#0b0818"/><rect x="13" y="2" width="5" height="1" fill="#1a1428"/><rect x="18" y="2" width="14" height="1" fill="#0b0818"/><rect x="0" y="3" width="4" height="1" fill="#0b0818"/><rect x="4" y="3" width="3" height="1" fill="#cfd6e6"/><rect x="7" y="3" width="1" height="1" fill="#0b0818"/><rect x="8" y="3" width="1" height="1" fill="#1a1428"/><rect x="9" y="3" width="2" height="1" fill="#0b0818"/><rect x="11" y="3" width="4" height="1" fill="#1a1428"/><rect x="15" y="3" width="1" height="1" fill="#ffb454"/><rect x="16" y="3" width="4" height="1" fill="#1a1428"/><rect x="20" y="3" width="2" height="1" fill="#0b0818"/><rect x="22" y="3" width="1" height="1" fill="#1a1428"/><rect x="23" y="3" width="6" height="1" fill="#0b0818"/><rect x="29" y="3" width="1" height="1" fill="#fef6d8"/><rect x="30" y="3" width="2" height="1" fill="#0b0818"/><rect x="0" y="4" width="7" height="1" fill="#0b0818"/><rect x="7" y="4" width="3" height="1" fill="#1a1428"/><rect x="10" y="4" width="3" height="1" fill="#0b0818"/><rect x="13" y="4" width="6" height="1" fill="#241c38"/><rect x="19" y="4" width="2" height="1" fill="#0b0818"/><rect x="21" y="4" width="3" height="1" fill="#1a1428"/><rect x="24" y="4" width="8" height="1" fill="#0b0818"/><rect x="0" y="5" width="5" height="1" fill="#0b0818"/><rect x="5" y="5" width="7" height="1" fill="#1a1428"/><rect x="12" y="5" width="1" height="1" fill="#0b0818"/><rect x="13" y="5" width="6" height="1" fill="#241c38"/><rect x="19" y="5" width="7" height="1" fill="#1a1428"/><rect x="26" y="5" width="6" height="1" fill="#0b0818"/><rect x="0" y="6" width="4" height="1" fill="#0b0818"/><rect x="4" y="6" width="1" height="1" fill="#fef6d8"/><rect x="5" y="6" width="2" height="1" fill="#0b0818"/><rect x="7" y="6" width="4" height="1" fill="#241c38"/><rect x="11" y="6" width="2" height="1" fill="#0b0818"/><rect x="13" y="6" width="6" height="1" fill="#241c38"/><rect x="19" y="6" width="2" height="1" fill="#0b0818"/><rect x="21" y="6" width="4" height="1" fill="#241c38"/><rect x="25" y="6" width="2" height="1" fill="#0b0818"/><rect x="27" y="6" width="1" height="1" fill="#fef6d8"/><rect x="28" y="6" width="4" height="1" fill="#0b0818"/><rect x="0" y="7" width="7" height="1" fill="#0b0818"/><rect x="7" y="7" width="4" height="1" fill="#241c38"/><rect x="11" y="7" width="1" height="1" fill="#fef6d8"/><rect x="12" y="7" width="1" height="1" fill="#0b0818"/><rect x="13" y="7" width="6" height="1" fill="#241c38"/><rect x="19" y="7" width="1" height="1" fill="#fef6d8"/><rect x="20" y="7" width="1" height="1" fill="#0b0818"/><rect x="21" y="7" width="4" height="1" fill="#241c38"/><rect x="25" y="7" width="7" height="1" fill="#0b0818"/><rect x="0" y="8" width="7" height="1" fill="#0b0818"/><rect x="7" y="8" width="1" height="1" fill="#241c38"/><rect x="8" y="8" width="1" height="1" fill="#ffb454"/><rect x="9" y="8" width="2" height="1" fill="#241c38"/><rect x="11" y="8" width="2" height="1" fill="#0b0818"/><rect x="13" y="8" width="6" height="1" fill="#241c38"/><rect x="19" y="8" width="2" height="1" fill="#0b0818"/><rect x="21" y="8" width="1" height="1" fill="#241c38"/><rect x="22" y="8" width="1" height="1" fill="#ffb454"/><rect x="23" y="8" width="2" height="1" fill="#241c38"/><rect x="25" y="8" width="7" height="1" fill="#0b0818"/><rect x="0" y="9" width="7" height="1" fill="#1a1330"/><rect x="7" y="9" width="2" height="1" fill="#241c38"/><rect x="9" y="9" width="1" height="1" fill="#0b0818"/><rect x="10" y="9" width="1" height="1" fill="#241c38"/><rect x="11" y="9" width="1" height="1" fill="#0b0818"/><rect x="12" y="9" width="1" height="1" fill="#241c38"/><rect x="13" y="9" width="1" height="1" fill="#0b0818"/><rect x="14" y="9" width="1" height="1" fill="#241c38"/><rect x="15" y="9" width="1" height="1" fill="#0b0818"/><rect x="16" y="9" width="1" height="1" fill="#241c38"/><rect x="17" y="9" width="1" height="1" fill="#0b0818"/><rect x="18" y="9" width="1" height="1" fill="#241c38"/><rect x="19" y="9" width="1" height="1" fill="#0b0818"/><rect x="20" y="9" width="1" height="1" fill="#241c38"/><rect x="21" y="9" width="1" height="1" fill="#0b0818"/><rect x="22" y="9" width="3" height="1" fill="#241c38"/><rect x="25" y="9" width="7" height="1" fill="#1a1330"/><rect x="0" y="10" width="7" height="1" fill="#1a1330"/><rect x="7" y="10" width="18" height="1" fill="#241c38"/><rect x="25" y="10" width="7" height="1" fill="#1a1330"/><rect x="7" y="11" width="18" height="1" fill="#241c38"/><rect x="7" y="12" width="4" height="1" fill="#241c38"/><rect x="11" y="12" width="1" height="1" fill="#ffb454"/><rect x="12" y="12" width="7" height="1" fill="#241c38"/><rect x="19" y="12" width="1" height="1" fill="#ffb454"/><rect x="20" y="12" width="5" height="1" fill="#241c38"/><rect x="7" y="13" width="18" height="1" fill="#241c38"/><rect x="7" y="14" width="18" height="1" fill="#241c38"/><rect x="0" y="15" width="32" height="1" fill="#100a1c"/><rect x="0" y="16" width="32" height="1" fill="#100a1c"/><rect x="0" y="17" width="32" height="1" fill="#100a1c"/></svg>